<svg id="Layer_1" data-name="Layer 1" xmlns="http://www.w3.org/2000/svg" viewBox="0 0 429.87 94.67"><defs><style>.cls-1{fill:#414042;}.cls-2{fill:#eba900;}.cls-3{fill:#fff;}</style></defs><title>cgs-logo</title><path class="cls-1" d="M95.88,53.31c5.59,0,12.21,2.25,12.21,6.26v3.92H104V61.15c0-2.66-4.19-4-7.93-4-7.44,0-12.12,5-12.12,12.35s4.77,12.75,12.25,12.75c2.84,0,8.52-.85,8.52-4V74.13H98.45V70.61h10.37v8.92c0,4.91-8.2,6.67-13,6.67-9.78,0-16.63-7.12-16.63-16.54S86,53.31,95.88,53.31Z"/><path class="cls-1" d="M126.53,62.32c6.8,0,12.3,5,12.3,11.9s-5.5,12-12.3,12-12.3-5-12.3-12S119.73,62.32,126.53,62.32Zm0,20.1a8.16,8.16,0,0,0,0-16.31,8.16,8.16,0,0,0,0,16.31Z"/><path class="cls-1" d="M155.64,62.32c6.81,0,12.3,5,12.3,11.9s-5.49,12-12.3,12-12.3-5-12.3-12S148.84,62.32,155.64,62.32Zm0,20.1a8.16,8.16,0,1,0-7.84-8.2A7.91,7.91,0,0,0,155.64,82.42Z"/><path class="cls-1" d="M182.91,62.32a7.71,7.71,0,0,1,7,3.83H190a9.91,9.91,0,0,1-.14-1.71V57.23h-3.78V53.85h8.15V81.29a.88.88,0,0,0,1,1h2.3v3.38H193c-2,0-2.84-1-2.84-2.48v-.31a4.5,4.5,0,0,1,.14-1.22h-.09a8.15,8.15,0,0,1-7.71,4.55c-6.13,0-10-4.86-10-11.94C172.54,67,176.78,62.32,182.91,62.32Zm.54,20.1c3.38,0,6.58-2.44,6.58-8.11,0-4.19-2.12-8.16-6.45-8.16-3.65,0-6.58,2.93-6.58,8.11C177,79.22,179.66,82.42,183.45,82.42Z"/><path class="cls-1" d="M218.6,76.11v2.34c0,2.35,3,3.74,6.35,3.74,3.65,0,6.31-1.71,6.31-4.86,0-3.7-3.74-4.92-7.66-6.45-4.19-1.57-8.47-3.38-8.47-9,0-6,4.82-8.56,10.18-8.56,4.78,0,9.65,1.8,9.65,5.27v3.74h-4.19V60.11c0-1.84-2.84-2.84-5.46-2.84-3.1,0-5.58,1.45-5.58,4.38,0,3.37,3.2,4.5,6.76,5.85,4.68,1.76,9.32,3.56,9.32,9.47,0,6.08-4.95,9.23-10.86,9.23-4.95,0-10.5-2.21-10.5-6.76V76.11Z"/><path class="cls-1" d="M240.46,82.28h3.6V57.23h-3.83V53.85h8.16V65.66a12.3,12.3,0,0,1-.14,1.89h.09a9.45,9.45,0,0,1,8.52-5.23c5.36,0,7.84,2.93,7.84,8.74V82.28h3.56v3.38h-7.93V72.05c0-3.2-.68-5.72-4.33-5.72-4.46,0-7.61,3.79-7.61,8.65v7.3H252v3.38H240.46Z"/><path class="cls-1" d="M283.54,62.32c6.49,0,9.87,4.78,9.87,10.68,0,.58-.14,1.67-.14,1.67H276.6c.27,5,3.83,7.75,7.89,7.75a11.09,11.09,0,0,0,6.8-2.57l1.8,3.2a14,14,0,0,1-8.88,3.15,11.61,11.61,0,0,1-12.07-11.94C272.14,67,277.05,62.32,283.54,62.32Zm5.36,9.55c-.13-4-2.57-6.08-5.45-6.08-3.33,0-6,2.25-6.67,6.08Z"/><path class="cls-1" d="M301.3,91.29V67.23a.88.88,0,0,0-1-1h-2.8V62.86h5.05c2,0,2.79.9,2.79,2.25v.18a9.51,9.51,0,0,1-.09,1.31h.09s1.89-4.28,7.66-4.28c6.13,0,10,4.87,10,11.94,0,7.26-4.38,11.94-10.32,11.94a8.16,8.16,0,0,1-7.08-3.87h-.09a12.84,12.84,0,0,1,.14,2v7h3.6v3.38H297.74V91.29ZM312,82.42c3.61,0,6.58-2.93,6.58-8.11,0-5-2.66-8.16-6.49-8.16-3.38,0-6.53,2.39-6.53,8.2C305.58,78.41,307.79,82.42,312,82.42Z"/><path class="cls-1" d="M327.26,82.28h3.6V57.23H327V53.85h8.16V65.66a12.3,12.3,0,0,1-.14,1.89h.09a9.45,9.45,0,0,1,8.52-5.23c5.36,0,7.84,2.93,7.84,8.74V82.28h3.56v3.38h-7.93V72.05c0-3.2-.68-5.72-4.33-5.72-4.46,0-7.61,3.79-7.61,8.65v7.3h3.6v3.38H327.26Z"/><path class="cls-1" d="M370.34,62.32c6.49,0,9.86,4.78,9.86,10.68,0,.58-.13,1.67-.13,1.67H363.4c.27,5,3.83,7.75,7.88,7.75a11.1,11.1,0,0,0,6.81-2.57l1.8,3.2A14,14,0,0,1,371,86.2a11.61,11.61,0,0,1-12.07-11.94C358.94,67,363.85,62.32,370.34,62.32Zm5.36,9.55c-.14-4-2.57-6.08-5.45-6.08-3.34,0-6,2.25-6.67,6.08Z"/><path class="cls-1" d="M385.25,82.28h3.43v-15a.88.88,0,0,0-1-1h-2.84V62.86H390c2,0,2.93.81,2.93,2.66V67a13.37,13.37,0,0,1-.09,1.58h.09c1-3.34,3.69-6,7.2-6a7.77,7.77,0,0,1,1.13.09V67a5.55,5.55,0,0,0-1.26-.14c-4.87,0-6.94,4.91-6.94,9.37v6h3.38v3.38H385.25Z"/><path class="cls-1" d="M415.22,62.32a7.71,7.71,0,0,1,7,3.83h.09a10.65,10.65,0,0,1-.13-1.71V57.23h-3.79V53.85h8.16V81.29a.88.88,0,0,0,1,1h2.3v3.38h-4.55c-2,0-2.84-1-2.84-2.48v-.31a4.83,4.83,0,0,1,.13-1.22h-.09a8.14,8.14,0,0,1-7.7,4.55c-6.13,0-10-4.86-10-11.94C404.86,67,409.09,62.32,415.22,62.32Zm.54,20.1c3.38,0,6.58-2.44,6.58-8.11,0-4.19-2.12-8.16-6.44-8.16-3.65,0-6.58,2.93-6.58,8.11C409.32,79.22,412,82.42,415.76,82.42Z"/><path class="cls-1" d="M85.55,27.18c1.38,0,4.44.48,4.44,2.27V31H88.08v-.88c0-.85-1.5-1.14-2.43-1.14a3.68,3.68,0,0,0-3.79,3.94,3.88,3.88,0,0,0,3.9,4.22c.69,0,2.47-.22,2.47-1.12v-.88h1.9v1.56c0,1.69-2.93,2.24-4.5,2.24A5.81,5.81,0,0,1,79.69,33,5.71,5.71,0,0,1,85.55,27.18Z"/><path class="cls-1" d="M97.33,37.17h1.36V29H97.33V27.37h4.83V29h-1.38v3.29H106V29h-1.37V27.37h4.83V29h-1.36v8.22h1.36v1.56h-4.83V37.17H106V33.92h-5.17v3.25h1.38v1.56H97.33Z"/><path class="cls-1" d="M117.66,29H116.3V27.37h4.84V29h-1.38v5.51a3.23,3.23,0,0,0,.38,1.62,2.44,2.44,0,0,0,2.15,1,2.4,2.4,0,0,0,2.13-1,3.16,3.16,0,0,0,.38-1.62V29h-1.36V27.37h4.82V29H126.9v5.51a4.93,4.93,0,0,1-.83,2.85,4.67,4.67,0,0,1-3.78,1.62,4.73,4.73,0,0,1-3.78-1.6,4.51,4.51,0,0,1-.85-2.87Z"/><path class="cls-1" d="M135.15,37.17h1.36V29h-1.36V27.37h5a7.52,7.52,0,0,1,2.16.24,3,3,0,0,1,2.1,3,3.13,3.13,0,0,1-2.15,3.16v0a1.44,1.44,0,0,1,.56.59l1.32,2.37a.73.73,0,0,0,.76.37h.37v1.56H144c-.94,0-1.23-.19-1.58-.84L140.75,35c-.24-.44-.45-.58-1.1-.58h-1v2.79h1.31v1.56h-4.77Zm5.35-4.47a1.7,1.7,0,0,0,1.82-1.87,1.53,1.53,0,0,0-.9-1.57,3.08,3.08,0,0,0-1.28-.21h-1.53V32.7Z"/><path class="cls-1" d="M157.86,27.18c1.37,0,4.43.48,4.43,2.27V31h-1.91v-.88c0-.85-1.5-1.14-2.43-1.14a3.68,3.68,0,0,0-3.79,3.94,3.88,3.88,0,0,0,3.9,4.22c.69,0,2.47-.22,2.47-1.12v-.88h1.9v1.56c0,1.69-2.93,2.24-4.49,2.24A5.81,5.81,0,0,1,152,33,5.71,5.71,0,0,1,157.86,27.18Z"/><path class="cls-1" d="M169.63,37.17H171V29h-1.36V27.37h4.83V29h-1.37v3.29h5.17V29h-1.38V27.37h4.83V29h-1.36v8.22h1.36v1.56h-4.83V37.17h1.38V33.92h-5.17v3.25h1.37v1.56h-4.83Z"/><path class="cls-1" d="M204.27,27.18A5.74,5.74,0,0,1,210.16,33a5.89,5.89,0,1,1-11.78,0A5.74,5.74,0,0,1,204.27,27.18Zm0,9.91A3.91,3.91,0,0,0,208,33a3.74,3.74,0,1,0-7.46,0A3.91,3.91,0,0,0,204.27,37.09Z"/><path class="cls-1" d="M216.59,37.17H218V29h-1.36V27.37h8.12v2.95h-1.8V29.15h-2.86v3.26h3.69v1.68h-3.69v3.08h1.5v1.56h-5Z"/><path class="cls-1" d="M243.39,37.17h1.36V29.05h-2.14v1.71h-1.78V27.37h10v3.39H249V29.05h-2.16v8.12h1.37v1.56h-4.83Z"/><path class="cls-1" d="M257.61,37.17H259V29h-1.36V27.37h4.84V29h-1.38v3.29h5.17V29h-1.38V27.37h4.84V29h-1.36v8.22h1.36v1.56h-4.84V37.17h1.38V33.92h-5.17v3.25h1.38v1.56h-4.84Z"/><path class="cls-1" d="M276.89,37.17h1.36V29h-1.36V27.37h8.44V30.3h-1.79V29.05h-3.19v3.12h3.75v1.68h-3.75v3.2h3.43V35.77h1.79v3h-8.68Z"/><rect class="cls-2" width="65.08" height="91.13"/><path class="cls-3" d="M5.41,5.4V85.76H59.67V5.4ZM57,20.88A27.3,27.3,0,0,0,44,8.11H57ZM8.12,44.5A27.16,27.16,0,0,0,31.18,59.79V83.05H8.12Zm23.06-9.9V57.08A24.46,24.46,0,0,1,8.2,34.6Zm2.71-2.71V8.31a24.45,24.45,0,0,1,23,23.58ZM31.18,8.31V31.89h-23A24.45,24.45,0,0,1,31.18,8.31Zm2.71,48.77V34.6h23A24.46,24.46,0,0,1,33.89,57.08Zm-12.82-49A27.3,27.3,0,0,0,8.12,20.88V8.11ZM33.89,83.05V59.79A27.16,27.16,0,0,0,57,44.5V83.05Z"/></svg>