<?xml version="1.0" encoding="UTF-8" standalone="no"?>
<svg
   width="63.999992"
   height="56.265999"
   version="1.1"
   id="svg4"
   sodipodi:docname="eyet.svg"
   inkscape:version="1.2.2 (732a01da63, 2022-12-09)"
   xml:space="preserve"
   xmlns:inkscape="http://www.inkscape.org/namespaces/inkscape"
   xmlns:sodipodi="http://sodipodi.sourceforge.net/DTD/sodipodi-0.dtd"
   xmlns="http://www.w3.org/2000/svg"
   xmlns:svg="http://www.w3.org/2000/svg"><defs
     id="defs8" /><sodipodi:namedview
     id="namedview6"
     pagecolor="#505050"
     bordercolor="#eeeeee"
     borderopacity="1"
     inkscape:showpageshadow="0"
     inkscape:pageopacity="0"
     inkscape:pagecheckerboard="0"
     inkscape:deskcolor="#505050"
     showgrid="false"
     inkscape:zoom="8"
     inkscape:cx="-42.4375"
     inkscape:cy="37.75"
     inkscape:window-width="2560"
     inkscape:window-height="1529"
     inkscape:window-x="1192"
     inkscape:window-y="120"
     inkscape:window-maximized="1"
     inkscape:current-layer="svg4" /><path
     id="path1135"
     style="fill:#aaaaaa;fill-opacity:1;stroke:none;stroke-width:0.112139"
     d="m 44.404788,3.543054 c -0.606001,0.011224 -1.356345,0.3735441 -1.658985,0.801183 -0.121021,0.1710094 -0.818142,1.799551 -1.549142,3.619017 -1.487545,3.702513 -1.541179,3.959814 -1.012874,4.861303 0.313829,0.535507 0.625866,0.783171 1.206603,0.957677 0.830986,0.249717 1.856882,-0.151194 2.316376,-0.905327 0.124659,-0.204597 0.795663,-1.784965 1.491212,-3.5119085 1.079059,-2.6791212 1.265665,-3.2334919 1.271206,-3.7776949 0.005,-0.5333038 -0.04839,-0.7154227 -0.328095,-1.1114362 C 45.71912,3.8785215 45.071796,3.5307626 44.404788,3.543054 Z M 19.598661,3.55487 c -1.032907,0.00401 -2.042615,0.7569455 -2.044469,2.0295639 -8.01e-4,0.5552122 0.161393,1.0443687 1.216129,3.6684036 0.669353,1.6652765 1.310876,3.2141175 1.425716,3.4418265 0.247364,0.490469 0.855369,0.982682 1.361886,1.102562 0.841393,0.199128 1.847765,-0.226617 2.280242,-0.96458 0.501378,-0.855524 0.420566,-1.261545 -0.921973,-4.6287009 C 22.260913,6.5604977 21.594767,4.9723167 21.43593,4.6747357 21.022966,3.9010609 20.305379,3.5524605 19.598661,3.5548747 Z m 34.950032,7.329575 c -0.294897,0.006 -0.600301,0.07723 -0.900618,0.22264 -0.480982,0.232837 -4.132187,3.962939 -4.551502,4.649843 -0.133824,0.219223 -0.20549,0.553438 -0.205769,0.959319 -5.31e-4,0.827289 0.460846,1.590826 1.150416,1.903844 0.560832,0.254586 1.18191,0.27981 1.687786,0.06842 0.4058,-0.169558 4.383595,-4.235607 4.709526,-4.814 0.14861,-0.263741 0.192076,-0.53058 0.161853,-0.995023 -0.07873,-1.210399 -0.998468,-2.017022 -2.051692,-1.995073 z m -45.1712474,0.01573 c -0.4456504,0.01543 -0.890259,0.164428 -1.2459117,0.444178 -0.6198057,0.487543 -0.914682,1.620407 -0.6221297,2.389866 0.1133891,0.298252 2.8143468,3.275715 3.8520438,4.246405 0.318478,0.297902 0.73038,0.61133 0.915404,0.696489 0.473929,0.218132 1.152457,0.195443 1.708701,-0.0571 0.962656,-0.436976 1.437167,-1.777322 0.974436,-2.752449 -0.206581,-0.435326 -3.724862,-4.180504 -4.330292,-4.609536 -0.35989,-0.255036 -0.8066111,-0.373273 -1.2522514,-0.357886 z m 22.8099494,5.977342 c -3.10117,-0.01964 -6.212018,0.394591 -9.2573,1.25018 -3.25555,0.914671 -6.703016,2.505657 -9.873188,4.556428 C 9.8765895,24.741468 6.1057063,28.187501 3.4831136,31.433294 0.18998727,35.508965 0.00454256,35.785057 4.6040025e-6,36.619089 -9.97196e-4,36.868174 0.08785844,37.248822 0.19800131,37.464959 0.42530932,37.91081 1.7561396,39.620103 3.8072712,42.100457 10.69436,50.42876 20.058537,55.561367 29.490253,56.177556 c 8.120859,0.530549 15.39639,-1.520342 22.339498,-6.297107 2.601876,-1.790053 5.819571,-4.733007 8.007562,-7.324104 1.155694,-1.368607 3.601386,-4.443211 3.914364,-4.920877 0.270044,-0.412142 0.331911,-1.290139 0.12572,-1.783614 -0.140596,-0.336488 -1.156234,-1.718698 -2.282095,-3.10584 -0.07513,-0.09256 -0.561915,-0.698073 -1.081865,-1.345677 C 56.936113,26.944723 52.142549,23.021442 47.264346,20.556656 42.49783,18.148289 37.356035,16.910281 32.187395,16.877514 Z m -0.699004,4.244212 c 2.564942,-0.04367 5.149577,0.243977 7.665773,0.867659 2.650992,0.657101 6.362671,2.219226 8.502669,3.578386 0.09256,0.0588 0.467308,0.294075 0.832938,0.522915 1.841286,1.152399 3.999516,2.938666 6.06363,5.018789 1.8678,1.882266 4.541653,5.097579 4.541653,5.461316 0,0.221397 -1.591568,2.317597 -2.67284,3.520343 -3.645935,4.055552 -7.153539,6.348387 -11.232451,8.791555 -1.01632,0.608747 -3.252045,1.433721 -3.252045,1.433721 -1.543131,0.557787 -4.096272,1.203958 -5.719104,1.447405 -1.13078,0.169637 -5.838473,0.309251 -6.728361,0.199528 -4.453469,-0.549084 -7.00669,-1.282338 -10.57658,-3.037401 C 15.075482,47.03898 11.994908,44.729708 8.6986871,41.268606 7.964461,40.497647 7.0841797,39.513623 6.7424914,39.081888 6.4008031,38.650152 6.0930842,38.27168 6.058704,38.240835 5.7615037,37.974228 4.8226897,36.600292 4.8640522,36.492494 c 0.08034,-0.209477 1.77612,-2.309895 2.9341277,-3.634347 2.6437681,-3.023765 6.3731491,-6.129533 9.1324601,-7.605437 0.277546,-0.148451 0.731711,-0.404759 1.009258,-0.569458 0.762324,-0.452391 2.390475,-1.179946 3.939548,-1.760393 3.045803,-1.141288 6.311161,-1.745015 9.608945,-1.801133 z"
     sodipodi:nodetypes="cssscscccccccscscscccscscscccccccscsccccscscccssssssscccscccscasscsssccssccccsc" /><circle
     style="fill:none;fill-opacity:1;stroke:#aaaaaa;stroke-width:4.09829;stroke-dasharray:none;stroke-opacity:1"
     id="path2838"
     cx="31.999996"
     cy="36.587921"
     r="11.173071" /><path
     style="fill:none;stroke:#aaaaaa;stroke-width:4.2;stroke-linecap:round;stroke-linejoin:miter;stroke-dasharray:none;stroke-opacity:1"
     d="m 31.974,2.0999999 4e-6,8.9606891"
     id="path3803"
     sodipodi:nodetypes="cc" /></svg>
