<?xml version="1.0" encoding="UTF-8"?><svg id="Layer_1" xmlns="http://www.w3.org/2000/svg" viewBox="0 0 2682.22 575.36"><defs><style>.cls-1{fill:none;stroke:#fff;stroke-miterlimit:10;stroke-width:23px;}.cls-2{letter-spacing:.13em;}.cls-2,.cls-3{font-family:Belleza-Regular, Belleza;font-size:369.35px;}.cls-2,.cls-3,.cls-4{fill:#fff;}.cls-3{letter-spacing:.12em;}.cls-4{stroke-width:0px;}</style></defs><path class="cls-4" d="m269.23,334.29c-3.67,1.46-6.29,3.31-7.76,6.74-3.9,9.12-6.02,18.56-6.38,28.42-.1,2.49.51,4.51,1.73,6.62,1.17,2.03,1.99,4.25,2.97,6.39.41.88.44,1.65-.68,2.09-.27.11-.53.29-.72.49-3.4,3.45-7.4,2.85-11.51,1.61-1.04-.31-1.57-.87-1.61-1.94-.05-1.6-.3-3.18-.28-4.77.01-1.08-.36-1.61-1.4-2.01-2.76-1.06-2.54-1.12-2.62-4-.26-9.81,2.48-19.21,4.19-28.75.88-4.92-.41-8.99-3.98-12.51-1.61-1.59-3.1-3.28-4.62-4.95-2.31-2.53-5.11-3.47-8.58-2.84-10.96,1.98-22.03,2.32-33.14,2.2-14.99-.15-29.79-1.89-44.4-5.05-2.58-.56-5.14-1.3-7.66-2.09-6.86-2.16-13.37.45-15.91,7-1.3,3.36-1.87,7.07-2.12,10.67-.28,3.73.51,7.53.3,11.27-.5,8.36,2.26,16.22,3.53,24.32.2,1.3.32,2.61.61,3.88.11.47.47,1.07.89,1.27,2.48,1.13,2.31,3.52,2.93,5.52.05.18-.18.61-.38.68-1.97.68-3.94,1.4-5.96,1.9-1.16.29-2.41.18-3.92.27-.5-1.92-1.19-4.03-1.61-6.19-.36-1.9-1.29-3.07-3.35-3.02-2.14.04-2.78-1.21-3.13-2.93-2.1-10-4.25-20-6.36-30-.46-2.18-.84-4.37-1.28-6.55-.36-1.84-1.8-2.48-3.39-1.43-2.57,1.72-5.09,3.52-7.66,5.25-2.19,1.48-3.27,3.55-3.53,6.06-.91,8.91-1.69,17.84-2.79,26.73-.29,2.36.03,3.78,2.23,5.09,1.4.84,2.27,2.52,3.38,3.83-4.73,3.07-9.84,3.62-15.23,4.14.16-2.56.31-4.93.46-7.41-.54-.14-1.03-.26-1.51-.41-1.14-.33-1.83-1.04-1.82-2.23.01-10.55-.15-21.11.16-31.66.1-3.53,1.23-7.06,2.2-10.51.74-2.67.49-4.87-1.12-7.26-3.53-5.25-7.18-10.52-7.82-17.04-.12-1.19-.2-2.39-.23-3.58-.19-9.98-.38-19.95-.54-29.94-.05-3.38-1.16-6.45-2.43-9.56-1.77-4.33-3.43-8.74-4.7-13.23-1.46-5.17-1.03-10.45.6-15.55,4.33-13.56,11.49-25.37,23.41-34.04,7.09-5.16,15.11-8.76,23.52-11.29,3.74-1.13,7.93-1.32,11.9-1.22,20.99.51,41.98,1.14,62.96,1.97,21.63.86,43.24,2.05,64.88,2.96,4.64.19,9.31-.11,13.97-.23,3.38-.09,6.32-1.39,8.88-3.45,2.63-2.11,5.28-4.24,7.72-6.54,7.41-6.97,15.64-12.83,24.56-17.84,3.31-1.87,6.57-3.83,9.9-5.68.86-.48,1.23-.99.86-1.92-.58-1.43-1.24-2.83-1.67-4.3-.45-1.55-1.02-3.2-.9-4.76.16-2.17,1.76-3.01,3.95-2.47.95.25,1.99.56,2.74,1.14,4.13,3.22,8.52,6.27,9.98,11.61.45,1.66,1.22,2.14,3.05,2.1,2.13-.05,4.36.27,6.42.86,6.27,1.81,11.94,4.67,17.03,8.81,7,5.69,13.16,12.11,18.73,19.08,3.75,4.69,7.51,9.38,11.12,14.16,2.26,3,2.9,6.59,3.12,10.21.13,2.11-2.09,4.31-4.65,5.2-1.8.62-4,1.06-5.18,2.32-3.21,3.44-6.74,3.29-10.75,2.01-6.44-2.06-12.92-4.02-19.38-6-2.57-.79-7.28,1.04-8.36,3.43-.62,1.38-1.07,2.93-1.16,4.43-.77,14.79-3.3,29.28-8.15,43.31-3.99,11.52-8.37,22.88-15.19,33.26-5.22,7.93-12.22,13.7-20.9,17.62-4.85,2.19-8.01,5.44-8.64,10.6-.66,5.43-1.09,10.88-1.64,16.33-.47,4.77-1.01,9.53-1.38,14.3-.08,1.02.2,2.17.68,3.09.59,1.16,1.42,2.27,2.36,3.18,3.65,3.52,3.63,8.21,4.8,12.9h-6.18c-2.19,0-4.37-.05-6.55.02-1.08.03-1.54-.32-1.83-1.33-.73-2.55-2.05-4.69-4.71-5.88-1.73-.78-2.22-2.29-2.25-4.12-.26-12.15-.59-24.29-.9-36.42-.02-.72-.13-1.44-.23-2.39l-.02-.04h0Z"/><path class="cls-1" d="m417.39,215.91v-77.24c0-14.58-12.21-26.4-27.29-26.4h-43.1"/><path class="cls-1" d="m91.06,112.26h-43.1c-15.08,0-27.29,11.82-27.29,26.4v77.24"/><line class="cls-1" x1="91.06" y1="112.26" x2="347" y2="112.26"/><path class="cls-1" d="m20.66,309.26c0,109.74,84.91,157.14,198.36,157.14s198.36-48.54,198.36-158.27"/><line class="cls-1" x1="347" y1="112.26" x2="91.06" y2="112.26"/><line class="cls-1" x1="417.39" y1="313.61" x2="417.39" y2="215.91"/><line class="cls-1" x1="20.66" y1="215.91" x2="20.66" y2="313.61"/><text class="cls-3" transform="translate(663.83 386.01)"><tspan x="0" y="0">lockpocket</tspan></text><text class="cls-2" transform="translate(469.18 383.57)"><tspan x="0" y="0">f</tspan></text></svg>